<?xml version="1.0" encoding="utf-8"?>
<!-- Generator: Adobe Illustrator 18.1.1, SVG Export Plug-In . SVG Version: 6.00 Build 0)  -->
<!DOCTYPE svg PUBLIC "-//W3C//DTD SVG 1.1//EN" "http://www.w3.org/Graphics/SVG/1.1/DTD/svg11.dtd">
<svg version="1.1" id="Layer_1" xmlns="http://www.w3.org/2000/svg" xmlns:xlink="http://www.w3.org/1999/xlink" x="0px" y="0px"
	 viewBox="0 0 55.8 212.8" enable-background="new 0 0 55.8 212.8" xml:space="preserve">
<g>
	<g>
		<rect x="0" y="40.4" fill="#D4B982" width="55.8" height="36.3"/>
		<rect x="0" y="79" fill="#D4B982" width="55.8" height="36.3"/>
		<rect x="0" y="117.6" fill="#D4B982" width="55.8" height="95.3"/>
		<rect x="0" y="0" fill="#D4B982" width="55.8" height="38.1"/>
	</g>
	<path fill="#FFFFFF" d="M29.8,15c0-3.1,0.2-3.3,2.4-3.5v-0.9h-8.5v0.9c2.1,0.2,2.4,0.4,2.4,3.5v10c0,3.1-0.2,3.3-2.4,3.5v0.9h8.5
		v-0.9c-2.1-0.2-2.4-0.4-2.4-3.5V15z"/>
	<path fill="#FFFFFF" d="M29.7,106.7h8v-0.9c-1.5-0.1-1.9-0.3-2.9-2.8l-6.4-16H28l-6.8,16c-1,2.4-1.3,2.6-3.1,2.8v0.9h6.6v-0.9
		l-0.7-0.1c-1.3-0.1-1.5-0.6-1-1.9l1.1-2.9H30l1.2,3.1c0.5,1.2,0.4,1.6-0.7,1.7l-0.8,0.1V106.7z M27.1,93.1L27.1,93.1l2.4,6.2h-4.9
		L27.1,93.1z"/>
	<path fill="#FFFFFF" d="M21.9,62.5v4.7c1.6,0.7,3.5,1.1,5.2,1.1c4.3,0,6.9-2.8,6.9-5.9c0-3.1-1.9-4.5-4.7-5.9
		c-2.1-1-3.9-1.7-3.9-3.8c0-1.3,1-2.8,3.1-2.8c2.8,0,3.2,1.8,3.6,3.5h0.9v-4.1c-1.3-0.5-2.7-0.9-4.3-0.9c-4,0-6.4,2.6-6.4,5.7
		c0,2.8,2.1,4.3,4.5,5.5c2.7,1.3,3.9,2.1,3.9,4.2c0,1.4-0.8,2.9-3.3,2.9c-3.2,0-4-2.3-4.5-4.4H21.9z"/>
	<path fill="#FFFFFF" d="M22.3,126.2H14v0.9c1.5,0.2,2,0.3,2.8,2.9l5,15.2h0.9l5-12.4h0.1l5.3,12.4h0.9l4.9-15
		c0.8-2.5,1.2-2.9,3.1-3.1v-0.9h-7v0.9l1.1,0.1c1.3,0.1,1.5,0.5,1,2.3l-2.7,9.2h-0.1l-5.5-12.3h-0.3l-5.1,12.3h-0.1l-2.9-9.6
		c-0.4-1.4-0.3-1.7,0.8-1.8l1-0.1V126.2z"/>
</g>
</svg>
