<?xml version="1.0" encoding="utf-8"?>
<!-- Generator: Adobe Illustrator 15.1.0, SVG Export Plug-In . SVG Version: 6.00 Build 0)  -->
<!DOCTYPE svg PUBLIC "-//W3C//DTD SVG 1.1//EN" "http://www.w3.org/Graphics/SVG/1.1/DTD/svg11.dtd">
<svg version="1.1" id="Layer_1" xmlns="http://www.w3.org/2000/svg" xmlns:xlink="http://www.w3.org/1999/xlink" x="0px" y="0px"
	 width="88.084px" height="29.998px" viewBox="0 0 88.084 29.998" enable-background="new 0 0 88.084 29.998" xml:space="preserve">
<g>
	<g>
		<path d="M37.775,6.345h3.457l7.982,10.493V6.345h3.7v17.041h-3.19l-8.249-10.834v10.834h-3.7V6.345z"/>
		<path d="M61.335,16.667L54.787,6.345h4.382l4.064,6.841l4.139-6.841h4.26l-6.549,10.251v6.79h-3.748V16.667z"/>
		<path d="M73.235,16.083V6.345h3.748v9.641c0,2.775,1.387,4.212,3.677,4.212c2.287,0,3.674-1.389,3.674-4.088V6.345h3.75v9.617
			c0,5.158-2.897,7.69-7.474,7.69C76.033,23.652,73.235,21.099,73.235,16.083z"/>
	</g>
	<g>
		<rect x="3.267" y="3.422" fill="#FFFFFF" width="20.742" height="25.557"/>
		<path d="M29.996,29.998H0V0h29.996V29.998L29.996,29.998z M13.961,26.491c0.034,0.21,0.49,0.312,0.592,0l1.049-8.312h-2.548
			L13.961,26.491L13.961,26.491z M16.491,17.578v-1.259h-4.33v1.259H16.491L16.491,17.578z M15.243,15.705
			c5.488,0.198,5.877-4.805,5.898-6.676c0.002-0.108-0.05-0.119-0.078-0.043c-0.16,0.391-0.877,1.786-2.855,2.635
			c-1.767,0.757-2.83,2.478-3.015,4.023C15.185,15.684,15.217,15.703,15.243,15.705z M14.64,15.343
			c0.868-4.165,4.258-4.267,4.562-5.057c0.474-1.232-0.393-3.42-0.614-3.679c-0.021-0.028-0.052-0.011-0.061,0.014
			c-0.462,1.009-1.206,1.968-1.751,2.411c-0.769,0.618-3.713,2.801-2.207,6.312C14.588,15.388,14.629,15.377,14.64,15.343z
			 M14.041,15.51c-1.838-3.928,1.836-6.463,2.437-7.014c0.085-0.076,0.063-0.147,0.063-0.237c0.002-1.234-0.705-3.235-0.938-3.521
			c-0.032-0.044-0.061-0.026-0.074,0.02c-0.314,1.22-1.989,3.036-2.324,3.433c-2.838,3.375-2.189,5.43,0.775,7.368
			C14.017,15.582,14.062,15.554,14.041,15.51z M13.219,15.645c-3.075-1.834-2.768-4.453-1.493-6.381
			c0.028-0.039,0.037-0.106,0.028-0.185c-0.055-0.457-0.554-1.616-0.762-1.931c-0.055-0.081-0.101-0.074-0.104-0.018
			c-0.018,0.522-0.614,1.836-1.525,3.349c-0.971,1.61-0.973,5.103,3.843,5.239C13.251,15.719,13.264,15.673,13.219,15.645z"/>
	</g>
</g>
</svg>
