<?xml version="1.0" encoding="utf-8"?>
<!-- Generator: Adobe Illustrator 15.1.0, SVG Export Plug-In . SVG Version: 6.00 Build 0)  -->
<!DOCTYPE svg PUBLIC "-//W3C//DTD SVG 1.1//EN" "http://www.w3.org/Graphics/SVG/1.1/DTD/svg11.dtd">
<svg version="1.1" id="Layer_1" xmlns="http://www.w3.org/2000/svg" xmlns:xlink="http://www.w3.org/1999/xlink" x="0px" y="0px"
	 width="792px" height="1224px" viewBox="0 0 792 1224" enable-background="new 0 0 792 1224" xml:space="preserve">
<g>
	<g>
		<path d="M390.179,603.873h3.456l7.981,10.492v-10.492h3.7v17.04h-3.19l-8.248-10.834v10.834h-3.7L390.179,603.873L390.179,603.873
			z"/>
		<path d="M413.736,614.194l-6.547-10.322h4.38l4.065,6.839l4.139-6.839h4.261l-6.551,10.249v6.791h-3.748L413.736,614.194
			L413.736,614.194z"/>
		<path d="M425.638,613.61v-9.737h3.748v9.64c0,2.775,1.387,4.212,3.677,4.212c2.287,0,3.674-1.389,3.674-4.088v-9.765h3.75v9.617
			c0,5.158-2.896,7.69-7.475,7.69C428.435,621.18,425.638,618.625,425.638,613.61z"/>
	</g>
	<g>
		<rect x="355.669" y="600.95" fill="#FFFFFF" width="20.741" height="25.555"/>
		<path d="M382.397,627.525h-29.994v-29.999h29.994V627.525L382.397,627.525z M366.363,624.019c0.034,0.209,0.489,0.312,0.592,0
			l1.048-8.312h-2.548L366.363,624.019L366.363,624.019z M368.893,615.105v-1.259h-4.329v1.259H368.893L368.893,615.105z
			 M367.645,613.232c5.488,0.198,5.877-4.806,5.899-6.675c0.002-0.109-0.05-0.119-0.078-0.044c-0.161,0.391-0.876,1.785-2.855,2.635
			c-1.767,0.758-2.83,2.478-3.015,4.024C367.588,613.211,367.619,613.23,367.645,613.232z M367.042,612.869
			c0.868-4.164,4.258-4.267,4.561-5.057c0.474-1.232-0.394-3.42-0.614-3.679c-0.022-0.027-0.053-0.011-0.062,0.014
			c-0.462,1.008-1.206,1.968-1.751,2.411c-0.768,0.618-3.713,2.801-2.206,6.312C366.99,612.915,367.032,612.905,367.042,612.869z
			 M366.442,613.037c-1.837-3.928,1.836-6.462,2.437-7.014c0.085-0.074,0.063-0.147,0.063-0.236
			c0.003-1.234-0.705-3.235-0.938-3.522c-0.032-0.043-0.061-0.025-0.073,0.02c-0.314,1.221-1.989,3.036-2.324,3.435
			c-2.839,3.373-2.19,5.43,0.774,7.367C366.419,613.109,366.465,613.081,366.442,613.037z M365.621,613.172
			c-3.076-1.835-2.768-4.454-1.494-6.381c0.028-0.039,0.037-0.107,0.028-0.185c-0.055-0.458-0.554-1.617-0.762-1.932
			c-0.056-0.08-0.101-0.072-0.105-0.018c-0.018,0.523-0.614,1.835-1.525,3.349c-0.97,1.61-0.972,5.103,3.844,5.239
			C365.652,613.246,365.666,613.2,365.621,613.172z"/>
	</g>
</g>
</svg>
