<?xml version="1.0" encoding="utf-8"?>
<!-- Generator: Adobe Illustrator 15.1.0, SVG Export Plug-In . SVG Version: 6.00 Build 0)  -->
<!DOCTYPE svg PUBLIC "-//W3C//DTD SVG 1.1//EN" "http://www.w3.org/Graphics/SVG/1.1/DTD/svg11.dtd">
<svg version="1.1" xmlns="http://www.w3.org/2000/svg" xmlns:xlink="http://www.w3.org/1999/xlink" x="0px" y="0px"
	 width="171.471px" height="29.997px" viewBox="0 0 171.471 29.997" enable-background="new 0 0 171.471 29.997"
	 xml:space="preserve">
<g id="Layer_1">
	<rect x="95.86" fill="#FFFFFF" width="0.653" height="29.997"/>
	<g>
		<g>
			<path fill="#FFFFFF" d="M37.775,6.346h3.457l7.981,10.492V6.346h3.7v17.039h-3.189l-8.249-10.833v10.833h-3.7V6.346z"/>
			<path fill="#FFFFFF" d="M61.334,16.666l-6.547-10.32h4.382l4.064,6.84l4.139-6.84h4.26l-6.55,10.249v6.79h-3.748V16.666z"/>
			<path fill="#FFFFFF" d="M73.235,16.083V6.346h3.748v9.64c0,2.775,1.387,4.212,3.676,4.212c2.287,0,3.674-1.389,3.674-4.089V6.346
				h3.75v9.615c0,5.158-2.897,7.691-7.474,7.691C76.032,23.652,73.235,21.098,73.235,16.083z"/>
		</g>
		<g>
			<path fill="#FFFFFF" d="M29.995,29.997H0V0h29.995V29.997L29.995,29.997z M13.96,26.49c0.035,0.211,0.491,0.312,0.593,0
				l1.048-8.312h-2.548L13.96,26.49L13.96,26.49z M16.49,17.578v-1.259h-4.329v1.259H16.49L16.49,17.578z M15.243,15.705
				c5.488,0.197,5.876-4.805,5.898-6.676c0.002-0.108-0.051-0.119-0.078-0.043c-0.161,0.391-0.877,1.786-2.856,2.635
				c-1.767,0.757-2.83,2.478-3.014,4.023C15.185,15.684,15.217,15.703,15.243,15.705z M14.64,15.343
				c0.868-4.165,4.258-4.267,4.562-5.057c0.473-1.232-0.393-3.42-0.614-3.679c-0.021-0.027-0.052-0.011-0.061,0.014
				c-0.463,1.009-1.207,1.968-1.752,2.411c-0.768,0.618-3.713,2.801-2.206,6.312C14.588,15.388,14.629,15.377,14.64,15.343z
				 M14.041,15.51c-1.839-3.928,1.836-6.463,2.437-7.014c0.085-0.076,0.063-0.147,0.063-0.236c0.002-1.235-0.706-3.236-0.938-3.522
				c-0.033-0.044-0.062-0.026-0.074,0.02c-0.314,1.22-1.99,3.036-2.324,3.433c-2.839,3.375-2.189,5.43,0.774,7.368
				C14.017,15.581,14.062,15.553,14.041,15.51z M13.218,15.645c-3.075-1.834-2.767-4.453-1.493-6.381
				c0.028-0.039,0.037-0.105,0.028-0.184c-0.054-0.458-0.553-1.617-0.762-1.932c-0.054-0.08-0.1-0.074-0.104-0.018
				c-0.018,0.523-0.614,1.836-1.526,3.349c-0.97,1.61-0.972,5.102,3.844,5.238C13.251,15.718,13.264,15.673,13.218,15.645z"/>
		</g>
	</g>
</g>
<g id="Layer_2">
	<g>
		<path fill="#FFFFFF" d="M106.12,6.459h2.985v17.685h-2.985V6.459z"/>
		<path fill="#FFFFFF" d="M119.364,8.787c-0.868,0-1.581,0.177-2.138,0.531c-0.557,0.354-0.835,0.89-0.835,1.607
			s0.278,1.265,0.835,1.645c0.557,0.379,1.741,0.789,3.555,1.227s3.18,1.054,4.099,1.847c0.92,0.793,1.379,1.961,1.379,3.504
			c0,1.544-0.582,2.796-1.745,3.758c-1.164,0.961-2.69,1.441-4.58,1.441c-2.766,0-5.22-0.952-7.362-2.858l1.872-2.252
			c1.788,1.552,3.644,2.327,5.566,2.327c0.962,0,1.725-0.206,2.29-0.619c0.564-0.413,0.848-0.962,0.848-1.645
			c0-0.684-0.266-1.215-0.797-1.594c-0.531-0.38-1.447-0.726-2.745-1.038c-1.3-0.312-2.286-0.599-2.961-0.86
			c-0.675-0.261-1.273-0.603-1.796-1.024c-1.046-0.792-1.568-2.007-1.568-3.643c0-1.636,0.595-2.897,1.783-3.782
			c1.189-0.886,2.661-1.329,4.415-1.329c1.13,0,2.252,0.186,3.365,0.557c1.113,0.371,2.074,0.895,2.884,1.569l-1.594,2.251
			c-0.522-0.472-1.231-0.86-2.125-1.164C121.114,8.939,120.233,8.787,119.364,8.787z"/>
		<path fill="#FFFFFF" d="M132.281,20.122l-1.771,4.022h-3.188l7.793-17.685h3.188l7.792,17.685h-3.188l-1.771-4.022H132.281z
			 M139.922,17.364l-3.213-7.287l-3.214,7.287H139.922z"/>
		<path fill="#FFFFFF" d="M153.229,19.186l3.946-12.726h2.683l3.946,12.726l4.453-12.726h3.213l-6.173,17.685h-2.96l-3.72-12.119
			h-0.202l-3.719,12.119h-2.961l-6.173-17.685h3.213L153.229,19.186z"/>
	</g>
</g>
</svg>
