<?xml version="1.0" encoding="utf-8"?>
<!-- Generator: Adobe Illustrator 15.1.0, SVG Export Plug-In . SVG Version: 6.00 Build 0)  -->
<!DOCTYPE svg PUBLIC "-//W3C//DTD SVG 1.1//EN" "http://www.w3.org/Graphics/SVG/1.1/DTD/svg11.dtd">
<svg version="1.1" id="Layer_1" xmlns="http://www.w3.org/2000/svg" xmlns:xlink="http://www.w3.org/1999/xlink" x="0px" y="0px"
	 width="519.194px" height="89.64px" viewBox="0 0 519.194 89.64" enable-background="new 0 0 519.194 89.64" xml:space="preserve">
<g>
	<path d="M6.24,33.24h-3V6.76h3V33.24z"/>
	<path d="M36.36,6.76v26.48h-3.48L16.52,10.88v22.36h-3V6.76H17l16.36,22.28V6.76H36.36z"/>
	<path d="M46.679,10.82c-0.507,0.44-0.847,0.927-1.02,1.46c-0.173,0.534-0.26,1.1-0.26,1.7c0,0.6,0.26,1.153,0.78,1.66
		c0.52,0.507,1.207,0.934,2.06,1.28c0.854,0.347,1.826,0.654,2.92,0.92c1.093,0.267,2.207,0.54,3.34,0.82
		c1.133,0.28,2.246,0.6,3.34,0.96c1.093,0.36,2.066,0.82,2.92,1.38c1.893,1.2,2.84,2.84,2.84,4.92c0,2.48-0.927,4.374-2.78,5.68
		c-1.854,1.307-4.42,1.96-7.7,1.96c-3.707,0-6.534-0.773-8.48-2.32c-1.734-1.386-2.72-3.36-2.96-5.92h3.12
		c0.106,1.813,0.986,3.2,2.64,4.16c1.44,0.827,3.346,1.24,5.72,1.24c4.96,0,7.44-1.56,7.44-4.68c0-1.066-0.447-1.906-1.34-2.52
		c-0.894-0.613-2.014-1.12-3.36-1.52c-1.347-0.4-2.8-0.773-4.36-1.12c-1.56-0.346-3.014-0.793-4.36-1.34
		c-1.347-0.546-2.467-1.266-3.36-2.16c-0.894-0.893-1.34-2.1-1.34-3.62c0-2.16,0.826-3.92,2.48-5.28
		c1.653-1.36,4.146-2.04,7.48-2.04c3.36,0,5.96,0.773,7.8,2.32c1.68,1.36,2.573,3.107,2.68,5.24h-3.08
		c-0.267-2.186-1.68-3.64-4.24-4.36c-0.907-0.266-2.034-0.4-3.38-0.4c-1.347,0-2.48,0.154-3.4,0.46
		C47.899,10.007,47.186,10.38,46.679,10.82z"/>
	<path d="M87.6,9.64h-9.24v23.6h-3V9.64h-9.24V6.76H87.6V9.64z"/>
	<path d="M95.199,33.24h-3V6.76h3V33.24z"/>
	<path d="M121.278,9.64h-9.24v23.6h-3V9.64h-9.24V6.76h21.48V9.64z"/>
	<path d="M148.078,6.76v15.08c0,3.52-1.047,6.354-3.141,8.5c-2.094,2.147-4.807,3.22-8.14,3.22c-3.307,0-6.007-1.073-8.101-3.22
		c-2.094-2.146-3.14-4.98-3.14-8.5V6.76h3v15.16c0,2.854,0.854,5.08,2.561,6.68c1.466,1.36,3.359,2.04,5.68,2.04
		s4.227-0.68,5.72-2.04c1.706-1.573,2.561-3.8,2.561-6.68V6.76H148.078z"/>
	<path d="M173.838,9.64h-9.24v23.6h-3V9.64h-9.24V6.76h21.48V9.64z"/>
	<path d="M181.438,9.64v8.88h14.72v2.92h-14.72v8.92h16.479v2.88h-19.479V6.76h19.479v2.88H181.438z"/>
	<path d="M215.877,9.64v9.2h14.359v2.92h-14.359v11.48h-3V6.76h19.12v2.88H215.877z"/>
	<path d="M248.757,6.44c3.946,0,7.187,1.32,9.72,3.96c2.48,2.56,3.721,5.76,3.721,9.6c0,3.84-1.24,7.04-3.721,9.6
		c-2.533,2.64-5.773,3.96-9.72,3.96c-3.947,0-7.187-1.32-9.72-3.96c-2.48-2.56-3.721-5.76-3.721-9.6c0-3.84,1.24-7.04,3.721-9.6
		C241.57,7.76,244.81,6.44,248.757,6.44z M248.757,30.64c3.146,0,5.693-1.026,7.64-3.08c1.866-1.973,2.801-4.493,2.801-7.56
		c0-3.066-0.935-5.586-2.801-7.56c-1.946-2.053-4.493-3.08-7.64-3.08s-5.693,1.027-7.64,3.08c-1.867,1.974-2.801,4.494-2.801,7.56
		c0,3.067,0.934,5.587,2.801,7.56C243.063,29.613,245.61,30.64,248.757,30.64z"/>
	<path d="M270.797,33.24h-3V6.76h12.68c2.693,0,4.854,0.747,6.48,2.24c1.626,1.467,2.439,3.48,2.439,6.04
		c0,3.307-1.374,5.56-4.12,6.76c-0.773,0.347-1.533,0.6-2.279,0.76l6.96,10.68h-3.561l-6.399-10.16h-9.2V33.24z M270.797,20.24h9.16
		c2.826,0,4.772-0.88,5.84-2.64c0.399-0.666,0.6-1.52,0.6-2.56c0-1.68-0.573-3.006-1.72-3.98c-1.147-0.973-2.667-1.46-4.561-1.46
		h-9.319V20.24z"/>
	<path d="M323.477,9.64h-9.24v23.6h-3V9.64h-9.24V6.76h21.48V9.64z"/>
	<path d="M349.476,6.76v26.48h-3v-11.8h-15.399v11.8h-3V6.76h3v11.76h15.399V6.76H349.476z"/>
	<path d="M359.756,9.64v8.88h14.72v2.92h-14.72v8.92h16.479v2.88h-19.479V6.76h19.479v2.88H359.756z"/>
	<path d="M394.235,10.82c-0.507,0.44-0.847,0.927-1.021,1.46c-0.174,0.534-0.26,1.1-0.26,1.7c0,0.6,0.26,1.153,0.78,1.66
		c0.52,0.507,1.206,0.934,2.06,1.28c0.854,0.347,1.826,0.654,2.92,0.92c1.094,0.267,2.206,0.54,3.34,0.82
		c1.134,0.28,2.247,0.6,3.341,0.96c1.093,0.36,2.065,0.82,2.92,1.38c1.893,1.2,2.84,2.84,2.84,4.92c0,2.48-0.927,4.374-2.78,5.68
		c-1.854,1.307-4.42,1.96-7.7,1.96c-3.707,0-6.533-0.773-8.479-2.32c-1.734-1.386-2.721-3.36-2.96-5.92h3.12
		c0.105,1.813,0.986,3.2,2.64,4.16c1.44,0.827,3.347,1.24,5.72,1.24c4.96,0,7.44-1.56,7.44-4.68c0-1.066-0.447-1.906-1.34-2.52
		c-0.895-0.613-2.014-1.12-3.36-1.52c-1.347-0.4-2.8-0.773-4.36-1.12c-1.56-0.346-3.014-0.793-4.359-1.34
		c-1.347-0.546-2.467-1.266-3.36-2.16c-0.894-0.893-1.34-2.1-1.34-3.62c0-2.16,0.826-3.92,2.479-5.28
		c1.653-1.36,4.146-2.04,7.48-2.04c3.36,0,5.96,0.773,7.8,2.32c1.68,1.36,2.573,3.107,2.68,5.24h-3.079
		c-0.268-2.186-1.681-3.64-4.24-4.36c-0.907-0.266-2.034-0.4-3.38-0.4c-1.348,0-2.48,0.154-3.4,0.46
		C395.455,10.007,394.741,10.38,394.235,10.82z"/>
	<path d="M435.154,9.64h-9.24v23.6h-3V9.64h-9.24V6.76h21.48V9.64z"/>
	<path d="M461.954,6.76v15.08c0,3.52-1.047,6.354-3.141,8.5c-2.094,2.147-4.807,3.22-8.14,3.22c-3.307,0-6.007-1.073-8.101-3.22
		c-2.094-2.146-3.14-4.98-3.14-8.5V6.76h3v15.16c0,2.854,0.854,5.08,2.561,6.68c1.466,1.36,3.359,2.04,5.68,2.04
		s4.227-0.68,5.72-2.04c1.706-1.573,2.561-3.8,2.561-6.68V6.76H461.954z"/>
	<path d="M480.074,6.76c1.572,0,3.093,0.3,4.56,0.9c1.466,0.6,2.76,1.474,3.88,2.62c2.48,2.534,3.72,5.774,3.72,9.72
		c0,3.947-1.239,7.187-3.72,9.72c-1.12,1.147-2.414,2.02-3.88,2.62c-1.467,0.6-2.987,0.9-4.56,0.9h-11.16V6.76H480.074z
		 M479.954,30.4c2.772,0,5.026-1.026,6.76-3.08c1.68-1.973,2.52-4.413,2.52-7.32c0-2.906-0.84-5.346-2.52-7.32
		c-1.733-2.053-3.987-3.08-6.76-3.08h-8.04v20.8H479.954z"/>
	<path d="M507.314,33.24h-3V22.76l-11.12-16h3.64l8.96,12.88l8.96-12.88h3.641l-11.08,16V33.24z"/>
	<path d="M15,54.44c3.946,0,7.186,1.32,9.72,3.96c2.48,2.56,3.72,5.76,3.72,9.6c0,3.84-1.24,7.04-3.72,9.6
		c-2.534,2.64-5.774,3.96-9.72,3.96c-3.947,0-7.187-1.32-9.72-3.96C2.8,75.04,1.56,71.84,1.56,68c0-3.84,1.24-7.04,3.72-9.6
		C7.813,55.76,11.053,54.44,15,54.44z M15,78.64c3.146,0,5.693-1.026,7.64-3.08c1.866-1.973,2.8-4.493,2.8-7.56
		c0-3.066-0.934-5.586-2.8-7.56c-1.947-2.053-4.494-3.08-7.64-3.08c-3.147,0-5.694,1.027-7.64,3.08c-1.867,1.974-2.8,4.494-2.8,7.56
		c0,3.067,0.933,5.587,2.8,7.56C9.306,77.613,11.853,78.64,15,78.64z"/>
	<path d="M37.04,57.64v9.2H51.4v2.92H37.04v11.48h-3V54.76h19.12v2.88H37.04z"/>
	<path d="M86.279,57.64h-9.24v23.6h-3v-23.6h-9.24v-2.88h21.48V57.64z"/>
	<path d="M112.278,54.76v26.48h-3v-11.8H93.879v11.8h-3V54.76h3v11.76h15.399V54.76H112.278z"/>
	<path d="M122.559,57.64v8.88h14.72v2.92h-14.72v8.92h16.479v2.88h-19.479V54.76h19.479v2.88H122.559z"/>
	<path d="M177.118,81.24h-3.32l-3.24-7.68h-13.12l-3.239,7.68h-3.32l11.24-26.48h3.76L177.118,81.24z M169.397,70.8l-5.399-12.92
		l-5.4,12.92H169.397z"/>
	<path d="M204.117,54.76v26.48h-3.48l-16.359-22.36v22.36h-3V54.76h3.479l16.36,22.28V54.76H204.117z"/>
	<path d="M223.197,78.64c1.894,0,3.553-0.48,4.979-1.44s2.486-2.253,3.181-3.88h3.16c-0.88,2.507-2.334,4.48-4.36,5.92
		c-2.16,1.547-4.707,2.32-7.64,2.32c-3.867,0-7-1.32-9.4-3.96c-2.267-2.533-3.4-5.733-3.4-9.6c0-3.866,1.134-7.066,3.4-9.6
		c2.4-2.64,5.533-3.96,9.4-3.96c2.933,0,5.479,0.773,7.64,2.32c2.026,1.44,3.48,3.414,4.36,5.92h-3.16
		c-0.694-1.626-1.754-2.92-3.181-3.88s-3.086-1.44-4.979-1.44s-3.467,0.273-4.72,0.82c-1.254,0.547-2.308,1.3-3.16,2.26
		c-1.734,1.947-2.601,4.467-2.601,7.56c0,3.094,0.866,5.614,2.601,7.56C217.13,77.613,219.757,78.64,223.197,78.64z"/>
	<path d="M242.797,81.24h-3V54.76h3V81.24z"/>
	<path d="M253.077,57.64v8.88h14.72v2.92h-14.72v8.92h16.479v2.88h-19.479V54.76h19.479v2.88H253.077z"/>
	<path d="M298.036,54.76v26.48h-3.48l-16.359-22.36v22.36h-3V54.76h3.479l16.36,22.28V54.76H298.036z"/>
	<path d="M324.115,57.64h-9.24v23.6h-3v-23.6h-9.24v-2.88h21.48V57.64z"/>
	<path d="M346.795,81.24h-3.4l-8.239-26.48h3.159L345.115,77l7.12-22.24h3.439l7.12,22.24l6.8-22.24h3.16l-8.24,26.48h-3.399
		L353.955,59L346.795,81.24z"/>
	<path d="M388.635,54.44c3.946,0,7.187,1.32,9.72,3.96c2.48,2.56,3.721,5.76,3.721,9.6c0,3.84-1.24,7.04-3.721,9.6
		c-2.533,2.64-5.773,3.96-9.72,3.96c-3.947,0-7.187-1.32-9.72-3.96c-2.48-2.56-3.721-5.76-3.721-9.6c0-3.84,1.24-7.04,3.721-9.6
		C381.448,55.76,384.688,54.44,388.635,54.44z M388.635,78.64c3.146,0,5.693-1.026,7.64-3.08c1.866-1.973,2.801-4.493,2.801-7.56
		c0-3.066-0.935-5.586-2.801-7.56c-1.946-2.053-4.493-3.08-7.64-3.08s-5.693,1.027-7.64,3.08c-1.867,1.974-2.801,4.494-2.801,7.56
		c0,3.067,0.934,5.587,2.801,7.56C382.941,77.613,385.488,78.64,388.635,78.64z"/>
	<path d="M410.675,81.24h-3V54.76h12.68c2.693,0,4.854,0.747,6.48,2.24c1.626,1.467,2.439,3.48,2.439,6.04
		c0,3.307-1.374,5.56-4.12,6.76c-0.773,0.347-1.533,0.6-2.279,0.76l6.96,10.68h-3.561l-6.399-10.16h-9.2V81.24z M410.675,68.24h9.16
		c2.826,0,4.772-0.88,5.84-2.64c0.399-0.666,0.6-1.52,0.6-2.56c0-1.68-0.573-3.006-1.72-3.98c-1.147-0.973-2.667-1.46-4.561-1.46
		h-9.319V68.24z"/>
	<path d="M438.234,54.76v23.6h14.439v2.88h-17.439V54.76H438.234z"/>
	<path d="M468.515,54.76c1.572,0,3.093,0.3,4.56,0.9c1.466,0.6,2.76,1.474,3.88,2.62c2.48,2.534,3.72,5.774,3.72,9.72
		c0,3.947-1.239,7.187-3.72,9.72c-1.12,1.147-2.414,2.02-3.88,2.62c-1.467,0.6-2.987,0.9-4.56,0.9h-11.16V54.76H468.515z
		 M468.395,78.4c2.772,0,5.026-1.026,6.76-3.08c1.68-1.973,2.52-4.413,2.52-7.32c0-2.906-0.84-5.346-2.52-7.32
		c-1.733-2.053-3.987-3.08-6.76-3.08h-8.04v20.8H468.395z"/>
</g>
</svg>
